<svg width="26" height="28" viewBox="0 0 26 28" fill="none" xmlns="http://www.w3.org/2000/svg">
<path d="M15.963 3.18798C16.0039 3.13625 16.0546 3.09312 16.1123 3.06107C16.1699 3.02903 16.2333 3.0087 16.2989 3.00127C16.3644 2.99383 16.4307 2.99943 16.4941 3.01775C16.5574 3.03606 16.6165 3.06673 16.668 3.10798L17.748 3.97398L13.799 8.99998H16.343L19.311 5.22398L21.815 7.22998C21.8675 7.27199 21.9109 7.32415 21.9428 7.38334C21.9746 7.44253 21.9942 7.50753 22.0004 7.57446C22.0065 7.64139 21.9991 7.70887 21.9786 7.77288C21.9581 7.83689 21.9249 7.8961 21.881 7.94698L20.973 8.99998H23.587C23.9313 8.47974 24.0686 7.84957 23.972 7.23324C23.8755 6.61692 23.5519 6.05897 23.065 5.66898L17.918 1.54698C17.6609 1.34112 17.3656 1.1881 17.0492 1.0967C16.7327 1.00531 16.4014 0.977348 16.0741 1.01443C15.7468 1.0515 15.4301 1.15289 15.1421 1.31276C14.8541 1.47262 14.6005 1.68782 14.396 1.94598L8.809 8.99998H11.36L15.963 3.18798ZM18 18C17.7348 18 17.4804 18.1053 17.2929 18.2929C17.1054 18.4804 17 18.7348 17 19C17 19.2652 17.1054 19.5196 17.2929 19.7071C17.4804 19.8946 17.7348 20 18 20H21C21.2652 20 21.5196 19.8946 21.7071 19.7071C21.8946 19.5196 22 19.2652 22 19C22 18.7348 21.8946 18.4804 21.7071 18.2929C21.5196 18.1053 21.2652 18 21 18H18ZM3 5.99998C2.20435 5.99998 1.44129 6.31605 0.87868 6.87866C0.316071 7.44127 0 8.20434 0 8.99998V23.5C0 24.6935 0.474106 25.8381 1.31802 26.682C2.16193 27.5259 3.30653 28 4.5 28H21.5C22.6935 28 23.8381 27.5259 24.682 26.682C25.5259 25.8381 26 24.6935 26 23.5V14.5C26 13.3065 25.5259 12.1619 24.682 11.318C23.8381 10.4741 22.6935 9.99998 21.5 9.99998H3C2.73478 9.99998 2.48043 9.89463 2.29289 9.70709C2.10536 9.51956 2 9.2652 2 8.99998C2 8.73477 2.10536 8.48041 2.29289 8.29288C2.48043 8.10534 2.73478 7.99998 3 7.99998H7.58L9.176 5.99998H3ZM2 23.5V11.83C2.313 11.94 2.65 12 3 12H21.5C22.163 12 22.7989 12.2634 23.2678 12.7322C23.7366 13.2011 24 13.8369 24 14.5V23.5C24 24.163 23.7366 24.7989 23.2678 25.2678C22.7989 25.7366 22.163 26 21.5 26H4.5C3.83696 26 3.20107 25.7366 2.73223 25.2678C2.26339 24.7989 2 24.163 2 23.5Z" fill="#18A1FB"/>
</svg>
